<?xml version="1.0" standalone="no"?><!DOCTYPE svg PUBLIC "-//W3C//DTD SVG 1.1//EN" "http://www.w3.org/Graphics/SVG/1.1/DTD/svg11.dtd"><svg t="1666662469704" class="icon" viewBox="0 0 1024 1024" version="1.1" xmlns="http://www.w3.org/2000/svg" p-id="5817" xmlns:xlink="http://www.w3.org/1999/xlink" width="200" height="200"><path d="M511.5 123.9c52.4 0 103.2 10.2 150.9 30.5 46.2 19.5 87.7 47.5 123.3 83.1 35.6 35.6 63.6 77.1 83.1 123.3 20.2 47.8 30.5 98.6 30.5 150.9s-10.2 103.2-30.5 150.9c-19.5 46.2-47.5 87.7-83.1 123.3-35.6 35.6-77.1 63.6-123.3 83.1-47.8 20.2-98.6 30.5-150.9 30.5S408.3 889.3 360.6 869c-46.2-19.5-87.7-47.5-123.3-83.1-35.6-35.6-63.6-77.1-83.1-123.3-20.2-47.8-30.5-98.6-30.5-150.9s10.2-103.2 30.5-150.9c19.5-46.2 47.5-87.7 83.1-123.3 35.6-35.6 77.1-63.6 123.3-83.1 47.7-20.3 98.5-30.5 150.9-30.5m0-60c-247.3 0-447.8 200.5-447.8 447.8s200.5 447.8 447.8 447.8S959.3 759 959.3 511.7 758.8 63.9 511.5 63.9z" p-id="5818"></path><path d="M658 365.2l-71 197.4c-4.1 11.5-13.1 20.4-24.6 24.5L365 658.2l71-197.4c4.1-11.5 13.1-20.4 24.6-24.5L658 365.2m25.2-70c-5 0-10.2 0.9-15.2 2.7l-227.8 82a100.76 100.76 0 0 0-60.7 60.7l-82 227.8c-3.5 9.8-3.5 20.5 0 30.4 6.6 18.3 23.8 29.6 42.1 29.6 5 0 10.2-0.9 15.2-2.7l227.8-82c28.3-10.2 50.5-32.4 60.7-60.7l82-227.8c3.5-9.8 3.5-20.5 0-30.4-6.5-18.3-23.7-29.6-42.1-29.6z" p-id="5819"></path></svg>