<?xml version="1.0" standalone="no"?><!DOCTYPE svg PUBLIC "-//W3C//DTD SVG 1.1//EN" "http://www.w3.org/Graphics/SVG/1.1/DTD/svg11.dtd"><svg t="1666662635258" class="icon" viewBox="0 0 1024 1024" version="1.1" xmlns="http://www.w3.org/2000/svg" p-id="3607" xmlns:xlink="http://www.w3.org/1999/xlink" width="200" height="200"><path d="M634.88 576.853333s-3.413333-3.413333-3.413333-6.826666c85.333333-64.853333 133.12-167.253333 133.12-293.546667-3.413333-136.533333-109.226667-242.346667-252.586667-242.346667S262.826667 139.946667 262.826667 279.893333c0 157.013333 68.266667 245.76 129.706666 293.546667 0 0 0 3.413333-3.413333 3.413333-228.693333 37.546667-303.786667 204.8-303.786667 279.893334 0 116.053333 296.96 129.706667 426.666667 129.706666s426.666667-13.653333 426.666667-129.706666c0-71.68-75.093333-238.933333-303.786667-279.893334zM512 921.6c-191.146667 0-348.16-34.133333-358.4-61.44 0-34.133333 44.373333-184.32 256-215.04 30.72-3.413333 47.786667-40.96 51.2-61.44 6.826667-34.133333-10.24-51.2-17.066667-54.613333-75.093333-51.2-112.64-133.12-112.64-245.76C331.093333 177.493333 409.6 102.4 512 102.4s180.906667 75.093333 180.906667 177.493333c0 136.533333-64.853333 211.626667-116.053334 245.76-6.826667 3.413333-23.893333 20.48-17.066666 51.2 3.413333 17.066667 20.48 58.026667 54.613333 64.853334 211.626667 34.133333 256 180.906667 256 215.04-10.24 30.72-167.253333 64.853333-358.4 64.853333z" p-id="3608"></path></svg>