<?xml version="1.0" standalone="no"?><!DOCTYPE svg PUBLIC "-//W3C//DTD SVG 1.1//EN" "http://www.w3.org/Graphics/SVG/1.1/DTD/svg11.dtd"><svg t="1666662400213" class="icon" viewBox="0 0 1024 1024" version="1.1" xmlns="http://www.w3.org/2000/svg" p-id="3679" xmlns:xlink="http://www.w3.org/1999/xlink" width="200" height="200"><path d="M968 168c17.67 0 32 14.33 32 32v560c0 17.67-14.33 32-32 32h-76.6c-14.34 50.23-60.58 87-115.4 87s-101.07-36.77-115.4-87H363.69c-14 50.74-60.49 88-115.69 88s-101.68-37.26-115.69-88H32c-4.42 0-8-3.58-8-8V504.27c0-3.56 1.19-7.01 3.37-9.82l153.77-197.69a15.99 15.99 0 0 1 12.63-6.18h213.92V200c0-17.67 14.33-32 32-32H968zM248 704c-30.93 0-56 25.07-56 56s25.07 56 56 56 56-25.07 56-56-25.07-56-56-56z m528-1c-30.93 0-56 25.07-56 56s25.07 56 56 56 56-25.07 56-56-25.07-56-56-56z m160-471H471.69v100h0.31v396h188.04c13.67-51.25 60.4-89 115.96-89s102.29 37.75 115.96 89H936V232zM408 354.58H217.24L177.25 406H264c4.42 0 8 3.58 8 8v38c0 4.42-3.58 8-8 8H135.25L88 520.74V728h44.31c14-50.74 60.49-88 115.69-88s101.68 37.26 115.69 88H408V354.58z" p-id="3680"></path></svg>